<svg viewBox="0 0 800 450" width="800" height="450" xmlns="http://www.w3.org/2000/svg" role="img" aria-label="タロットカードのイメージ">
  <defs>
    <linearGradient id="bg-tarot" x1="0" y1="0" x2="1" y2="1">
      <stop offset="0" stop-color="#fdf2f4"/>
      <stop offset="1" stop-color="#34cccc"/>
    </linearGradient>
  </defs>
  <rect width="800" height="450" fill="url(#bg-tarot)"/>
  <!-- three upright tarot cards -->
  <g transform="translate(400 230)">
    <g transform="rotate(-12) translate(-150 0)">
      <rect x="-55" y="-95" width="110" height="170" rx="10" fill="#212529"/>
      <rect x="-46" y="-86" width="92" height="152" rx="6" fill="none" stroke="#0d7373" stroke-width="2"/>
      <circle cx="0" cy="-20" r="22" fill="none" stroke="#0d7373" stroke-width="3"/>
      <path d="M0 18 l8 18 19 2 -14 13 4 19 -17 -10 -17 10 4 -19 -14 -13 19 -2Z" fill="#0d7373"/>
    </g>
    <g transform="translate(0 -8)">
      <rect x="-60" y="-110" width="120" height="190" rx="12" fill="#212529"/>
      <rect x="-50" y="-100" width="100" height="170" rx="7" fill="none" stroke="#0d7373" stroke-width="2"/>
      <path d="M0 -70 a44 44 0 1 0 30 78 36 36 0 1 1 -30 -78Z" fill="#0d7373"/>
      <circle cx="22" cy="34" r="3.2" fill="#0d7373"/>
      <circle cx="-20" cy="50" r="2.4" fill="#0d7373"/>
    </g>
    <g transform="rotate(12) translate(150 0)">
      <rect x="-55" y="-95" width="110" height="170" rx="10" fill="#212529"/>
      <rect x="-46" y="-86" width="92" height="152" rx="6" fill="none" stroke="#0d7373" stroke-width="2"/>
      <path d="M0 -42 l11 24 26 3 -19 18 5 26 -23 -13 -23 13 5 -26 -19 -18 26 -3Z" fill="#0d7373"/>
    </g>
  </g>
</svg>
